# xmcd
#
# Track frame offsets:
#	150
#	11541
#	22344
#	35271
#	48954
#	59964
#	70134
#	84664
#	101870
#	116294
#	129036
#	139563
#	152909
#	162320
#	183355
#	194862
#	214393
#	230443
#	244063
#	270444
#	284364
#	301632
#	321863
#
# Disc length: 4503 seconds
#
# Revision: 2
# Processed by: cddbd v1.5.2PL0 Copyright (c) Steve Scherf et al.
# Submitted via: EasyCDDAExtractor 7.0.3.1
#
DISCID=4b119517
DTITLE=Willie Nelson - The Essential Willie Nelson  (Disc-1) 
DYEAR=2015
DGENRE=Country
TTITLE0=Night Life
TTITLE1=Hello Walls
TTITLE2=Crazy
TTITLE3=Funny How Time Slips Away
TTITLE4=The Party's Over
TTITLE5=I Gotta Get Drunk
TTITLE6=Yesterday's Wine
TTITLE7=Me and Paul
TTITLE8=Family Bible
TTITLE9=Bloody Mary Morning
TTITLE10=Blue Eyes Crying in the Rain
TTITLE11=Good Hearted Woman
TTITLE12=If You've Got the Money I've Got the Time
TTITLE13=Uncloudy Day
TTITLE14=Mammas, Don't Let Your Babies Grow Up to Be Cowboys (duet with Waylon
TTITLE14=Jennings)
TTITLE15=Georgia on My Mind
TTITLE16=Blue Skies
TTITLE17=Heartbreak Hotel (with Leon Russell)
TTITLE18=Loving Her Was Easier (Than Anything I'll Ever Do Again)
TTITLE19=My Heroes Have Always Been Cowboys
TTITLE20=Faded Love
TTITLE21=Angel Flying Too Close to the Ground
TTITLE22=Whiskey River (live)
EXTD=
EXTT0=
EXTT1=
EXTT2=
EXTT3=
EXTT4=
EXTT5=
EXTT6=
EXTT7=
EXTT8=
EXTT9=
EXTT10=
EXTT11=
EXTT12=
EXTT13=
EXTT14=
EXTT15=
EXTT16=
EXTT17=
EXTT18=
EXTT19=
EXTT20=
EXTT21=
EXTT22=
PLAYORDER=
